<?xml version="1.0" standalone="no"?>
<!DOCTYPE svg PUBLIC "-//W3C//DTD SVG 20010904//EN"
 "http://www.w3.org/TR/2001/REC-SVG-20010904/DTD/svg10.dtd">
<svg version="1.0" xmlns="http://www.w3.org/2000/svg"
 width="512.000000pt" height="512.000000pt" viewBox="0 0 512.000000 512.000000"
 preserveAspectRatio="xMidYMid meet">

<g transform="translate(0.000000,512.000000) scale(0.100000,-0.100000)"
fill="#000000" stroke="none">
<path d="M1081 4419 c-85 -14 -178 -65 -247 -133 -166 -166 -186 -423 -47
-611 16 -22 280 -332 586 -688 305 -357 564 -665 574 -685 17 -34 18 -85 23
-717 6 -759 3 -720 78 -820 83 -110 223 -169 351 -147 100 16 569 252 636 319
54 54 90 123 105 203 6 31 10 268 10 581 0 465 2 533 16 569 11 26 228 288
601 723 367 428 593 700 608 732 89 181 57 391 -82 536 -64 68 -164 123 -252
139 -68 13 -2883 11 -2960 -1z m2926 -324 c51 -22 70 -40 88 -90 33 -84 48
-63 -585 -802 -421 -491 -588 -693 -614 -742 -66 -126 -66 -130 -66 -726 0
-354 -4 -543 -10 -556 -10 -18 -455 -249 -480 -249 -5 0 -19 9 -30 20 -20 20
-20 33 -20 671 0 723 1 712 -66 840 -26 49 -193 251 -614 742 -617 721 -615
718 -590 790 18 52 40 78 83 98 41 18 90 19 1455 19 1249 0 1417 -2 1449 -15z"/>
</g>
</svg>
